<mxfile host="app.diagrams.net" modified="2023-10-17T17:02:41.475Z" agent="Mozilla/5.0 (Windows NT 10.0; Win64; x64) AppleWebKit/537.36 (KHTML, like Gecko) Chrome/118.0.0.0 Safari/537.36" etag="Qv8cYDAJkoW1MY4SnMER" version="22.0.4" type="github">
  <diagram name="Página-1" id="msR2nBrleSWa6xu2xoGH">
    <mxGraphModel dx="2261" dy="1937" grid="1" gridSize="10" guides="1" tooltips="1" connect="1" arrows="1" fold="1" page="1" pageScale="1" pageWidth="827" pageHeight="1169" math="0" shadow="0">
      <root>
        <mxCell id="0" />
        <mxCell id="1" parent="0" />
        <mxCell id="7VkVirSZ5WOiLg93lLZf-1" value="Lagos" style="swimlane;fontStyle=0;childLayout=stackLayout;horizontal=1;startSize=26;horizontalStack=0;resizeParent=1;resizeParentMax=0;resizeLast=0;collapsible=1;marginBottom=0;align=center;fontSize=14;" parent="1" vertex="1">
          <mxGeometry x="40" y="90" width="160" height="56" as="geometry" />
        </mxCell>
        <mxCell id="7VkVirSZ5WOiLg93lLZf-2" value="extension" style="text;strokeColor=none;fillColor=none;spacingLeft=4;spacingRight=4;overflow=hidden;rotatable=0;points=[[0,0.5],[1,0.5]];portConstraint=eastwest;fontSize=12;whiteSpace=wrap;html=1;" parent="7VkVirSZ5WOiLg93lLZf-1" vertex="1">
          <mxGeometry y="26" width="160" height="30" as="geometry" />
        </mxCell>
        <mxCell id="7VkVirSZ5WOiLg93lLZf-5" value="Rios" style="swimlane;fontStyle=0;childLayout=stackLayout;horizontal=1;startSize=26;horizontalStack=0;resizeParent=1;resizeParentMax=0;resizeLast=0;collapsible=1;marginBottom=0;align=center;fontSize=14;" parent="1" vertex="1">
          <mxGeometry x="310" y="90" width="160" height="56" as="geometry" />
        </mxCell>
        <mxCell id="7VkVirSZ5WOiLg93lLZf-6" value="longitud" style="text;strokeColor=none;fillColor=none;spacingLeft=4;spacingRight=4;overflow=hidden;rotatable=0;points=[[0,0.5],[1,0.5]];portConstraint=eastwest;fontSize=12;whiteSpace=wrap;html=1;" parent="7VkVirSZ5WOiLg93lLZf-5" vertex="1">
          <mxGeometry y="26" width="160" height="30" as="geometry" />
        </mxCell>
        <mxCell id="7VkVirSZ5WOiLg93lLZf-9" value="Montañas" style="swimlane;fontStyle=0;childLayout=stackLayout;horizontal=1;startSize=26;horizontalStack=0;resizeParent=1;resizeParentMax=0;resizeLast=0;collapsible=1;marginBottom=0;align=center;fontSize=14;" parent="1" vertex="1">
          <mxGeometry x="-210" y="90" width="160" height="56" as="geometry" />
        </mxCell>
        <mxCell id="7VkVirSZ5WOiLg93lLZf-10" value="altura" style="text;strokeColor=none;fillColor=none;spacingLeft=4;spacingRight=4;overflow=hidden;rotatable=0;points=[[0,0.5],[1,0.5]];portConstraint=eastwest;fontSize=12;whiteSpace=wrap;html=1;" parent="7VkVirSZ5WOiLg93lLZf-9" vertex="1">
          <mxGeometry y="26" width="160" height="30" as="geometry" />
        </mxCell>
        <mxCell id="7VkVirSZ5WOiLg93lLZf-13" value="Accidentes geográficos" style="swimlane;fontStyle=0;childLayout=stackLayout;horizontal=1;startSize=26;horizontalStack=0;resizeParent=1;resizeParentMax=0;resizeLast=0;collapsible=1;marginBottom=0;align=center;fontSize=14;" parent="1" vertex="1">
          <mxGeometry x="40" y="-290" width="160" height="116" as="geometry" />
        </mxCell>
        <mxCell id="7VkVirSZ5WOiLg93lLZf-16" value="&lt;u&gt;nombre&lt;/u&gt;" style="text;strokeColor=none;fillColor=none;spacingLeft=4;spacingRight=4;overflow=hidden;rotatable=0;points=[[0,0.5],[1,0.5]];portConstraint=eastwest;fontSize=12;whiteSpace=wrap;html=1;" parent="7VkVirSZ5WOiLg93lLZf-13" vertex="1">
          <mxGeometry y="26" width="160" height="30" as="geometry" />
        </mxCell>
        <mxCell id="7VkVirSZ5WOiLg93lLZf-14" value="pos_horizontal" style="text;strokeColor=none;fillColor=none;spacingLeft=4;spacingRight=4;overflow=hidden;rotatable=0;points=[[0,0.5],[1,0.5]];portConstraint=eastwest;fontSize=12;whiteSpace=wrap;html=1;" parent="7VkVirSZ5WOiLg93lLZf-13" vertex="1">
          <mxGeometry y="56" width="160" height="30" as="geometry" />
        </mxCell>
        <mxCell id="7VkVirSZ5WOiLg93lLZf-15" value="pos_vertical" style="text;strokeColor=none;fillColor=none;spacingLeft=4;spacingRight=4;overflow=hidden;rotatable=0;points=[[0,0.5],[1,0.5]];portConstraint=eastwest;fontSize=12;whiteSpace=wrap;html=1;" parent="7VkVirSZ5WOiLg93lLZf-13" vertex="1">
          <mxGeometry y="86" width="160" height="30" as="geometry" />
        </mxCell>
        <mxCell id="7VkVirSZ5WOiLg93lLZf-17" value="Pais" style="swimlane;fontStyle=0;childLayout=stackLayout;horizontal=1;startSize=26;horizontalStack=0;resizeParent=1;resizeParentMax=0;resizeLast=0;collapsible=1;marginBottom=0;align=center;fontSize=14;" parent="1" vertex="1">
          <mxGeometry x="40" y="-560" width="160" height="116" as="geometry" />
        </mxCell>
        <mxCell id="7VkVirSZ5WOiLg93lLZf-18" value="&lt;u&gt;nombre&lt;/u&gt;" style="text;strokeColor=none;fillColor=none;spacingLeft=4;spacingRight=4;overflow=hidden;rotatable=0;points=[[0,0.5],[1,0.5]];portConstraint=eastwest;fontSize=12;whiteSpace=wrap;html=1;" parent="7VkVirSZ5WOiLg93lLZf-17" vertex="1">
          <mxGeometry y="26" width="160" height="30" as="geometry" />
        </mxCell>
        <mxCell id="7VkVirSZ5WOiLg93lLZf-19" value="extension" style="text;strokeColor=none;fillColor=none;spacingLeft=4;spacingRight=4;overflow=hidden;rotatable=0;points=[[0,0.5],[1,0.5]];portConstraint=eastwest;fontSize=12;whiteSpace=wrap;html=1;" parent="7VkVirSZ5WOiLg93lLZf-17" vertex="1">
          <mxGeometry y="56" width="160" height="30" as="geometry" />
        </mxCell>
        <mxCell id="7VkVirSZ5WOiLg93lLZf-20" value="poblacion" style="text;strokeColor=none;fillColor=none;spacingLeft=4;spacingRight=4;overflow=hidden;rotatable=0;points=[[0,0.5],[1,0.5]];portConstraint=eastwest;fontSize=12;whiteSpace=wrap;html=1;" parent="7VkVirSZ5WOiLg93lLZf-17" vertex="1">
          <mxGeometry y="86" width="160" height="30" as="geometry" />
        </mxCell>
        <mxCell id="7VkVirSZ5WOiLg93lLZf-21" value="Localidad" style="swimlane;fontStyle=0;childLayout=stackLayout;horizontal=1;startSize=26;horizontalStack=0;resizeParent=1;resizeParentMax=0;resizeLast=0;collapsible=1;marginBottom=0;align=center;fontSize=14;" parent="1" vertex="1">
          <mxGeometry x="480" y="-545" width="160" height="86" as="geometry" />
        </mxCell>
        <mxCell id="7VkVirSZ5WOiLg93lLZf-22" value="&lt;u&gt;id&lt;/u&gt;" style="text;strokeColor=none;fillColor=none;spacingLeft=4;spacingRight=4;overflow=hidden;rotatable=0;points=[[0,0.5],[1,0.5]];portConstraint=eastwest;fontSize=12;whiteSpace=wrap;html=1;" parent="7VkVirSZ5WOiLg93lLZf-21" vertex="1">
          <mxGeometry y="26" width="160" height="30" as="geometry" />
        </mxCell>
        <mxCell id="3VGVRFMRFs9TxI8zLVsD-3" value="nombre" style="text;strokeColor=none;fillColor=none;spacingLeft=4;spacingRight=4;overflow=hidden;rotatable=0;points=[[0,0.5],[1,0.5]];portConstraint=eastwest;fontSize=12;whiteSpace=wrap;html=1;" vertex="1" parent="7VkVirSZ5WOiLg93lLZf-21">
          <mxGeometry y="56" width="160" height="30" as="geometry" />
        </mxCell>
        <mxCell id="7VkVirSZ5WOiLg93lLZf-25" value="" style="triangle;whiteSpace=wrap;html=1;rotation=90;" parent="1" vertex="1">
          <mxGeometry x="90" y="-100" width="60" height="80" as="geometry" />
        </mxCell>
        <mxCell id="7VkVirSZ5WOiLg93lLZf-27" value="" style="endArrow=none;html=1;rounded=0;entryX=0.5;entryY=1;entryDx=0;entryDy=0;" parent="1" source="7VkVirSZ5WOiLg93lLZf-9" target="7VkVirSZ5WOiLg93lLZf-25" edge="1">
          <mxGeometry width="50" height="50" relative="1" as="geometry">
            <mxPoint x="310" y="-160" as="sourcePoint" />
            <mxPoint x="360" y="-210" as="targetPoint" />
          </mxGeometry>
        </mxCell>
        <mxCell id="7VkVirSZ5WOiLg93lLZf-28" value="" style="endArrow=none;html=1;rounded=0;" parent="1" source="7VkVirSZ5WOiLg93lLZf-1" target="7VkVirSZ5WOiLg93lLZf-25" edge="1">
          <mxGeometry width="50" height="50" relative="1" as="geometry">
            <mxPoint x="310" y="-160" as="sourcePoint" />
            <mxPoint x="360" y="-210" as="targetPoint" />
          </mxGeometry>
        </mxCell>
        <mxCell id="7VkVirSZ5WOiLg93lLZf-29" value="" style="endArrow=none;html=1;rounded=0;entryX=0.5;entryY=0;entryDx=0;entryDy=0;" parent="1" source="7VkVirSZ5WOiLg93lLZf-5" target="7VkVirSZ5WOiLg93lLZf-25" edge="1">
          <mxGeometry width="50" height="50" relative="1" as="geometry">
            <mxPoint x="310" y="-160" as="sourcePoint" />
            <mxPoint x="360" y="-210" as="targetPoint" />
          </mxGeometry>
        </mxCell>
        <mxCell id="7VkVirSZ5WOiLg93lLZf-30" value="" style="endArrow=none;html=1;rounded=0;exitX=0;exitY=0.5;exitDx=0;exitDy=0;" parent="1" source="7VkVirSZ5WOiLg93lLZf-25" target="7VkVirSZ5WOiLg93lLZf-13" edge="1">
          <mxGeometry width="50" height="50" relative="1" as="geometry">
            <mxPoint x="310" y="-160" as="sourcePoint" />
            <mxPoint x="360" y="-210" as="targetPoint" />
          </mxGeometry>
        </mxCell>
        <mxCell id="7VkVirSZ5WOiLg93lLZf-33" style="edgeStyle=orthogonalEdgeStyle;rounded=0;orthogonalLoop=1;jettySize=auto;html=1;endArrow=ERzeroToMany;endFill=0;" parent="1" source="7VkVirSZ5WOiLg93lLZf-32" target="7VkVirSZ5WOiLg93lLZf-13" edge="1">
          <mxGeometry relative="1" as="geometry" />
        </mxCell>
        <mxCell id="7VkVirSZ5WOiLg93lLZf-34" style="edgeStyle=orthogonalEdgeStyle;rounded=0;orthogonalLoop=1;jettySize=auto;html=1;endArrow=ERoneToMany;endFill=0;" parent="1" source="7VkVirSZ5WOiLg93lLZf-32" target="7VkVirSZ5WOiLg93lLZf-17" edge="1">
          <mxGeometry relative="1" as="geometry" />
        </mxCell>
        <mxCell id="7VkVirSZ5WOiLg93lLZf-32" value="Estar" style="shape=rhombus;perimeter=rhombusPerimeter;whiteSpace=wrap;html=1;align=center;" parent="1" vertex="1">
          <mxGeometry x="60" y="-400" width="120" height="60" as="geometry" />
        </mxCell>
        <mxCell id="7VkVirSZ5WOiLg93lLZf-37" style="edgeStyle=orthogonalEdgeStyle;rounded=0;orthogonalLoop=1;jettySize=auto;html=1;endArrow=ERoneToMany;endFill=0;" parent="1" source="7VkVirSZ5WOiLg93lLZf-35" target="7VkVirSZ5WOiLg93lLZf-21" edge="1">
          <mxGeometry relative="1" as="geometry" />
        </mxCell>
        <mxCell id="7VkVirSZ5WOiLg93lLZf-38" style="edgeStyle=orthogonalEdgeStyle;rounded=0;orthogonalLoop=1;jettySize=auto;html=1;endArrow=ERmandOne;endFill=0;" parent="1" source="7VkVirSZ5WOiLg93lLZf-35" target="7VkVirSZ5WOiLg93lLZf-17" edge="1">
          <mxGeometry relative="1" as="geometry" />
        </mxCell>
        <mxCell id="7VkVirSZ5WOiLg93lLZf-35" value="Pertenece" style="shape=rhombus;perimeter=rhombusPerimeter;whiteSpace=wrap;html=1;align=center;" parent="1" vertex="1">
          <mxGeometry x="300" y="-532" width="120" height="60" as="geometry" />
        </mxCell>
        <mxCell id="7VkVirSZ5WOiLg93lLZf-41" style="edgeStyle=orthogonalEdgeStyle;rounded=0;orthogonalLoop=1;jettySize=auto;html=1;endArrow=ERzeroToMany;endFill=0;" parent="1" source="7VkVirSZ5WOiLg93lLZf-40" target="7VkVirSZ5WOiLg93lLZf-21" edge="1">
          <mxGeometry relative="1" as="geometry" />
        </mxCell>
        <mxCell id="7VkVirSZ5WOiLg93lLZf-42" style="edgeStyle=orthogonalEdgeStyle;rounded=0;orthogonalLoop=1;jettySize=auto;html=1;endArrow=ERzeroToMany;endFill=0;" parent="1" source="7VkVirSZ5WOiLg93lLZf-40" target="7VkVirSZ5WOiLg93lLZf-5" edge="1">
          <mxGeometry relative="1" as="geometry">
            <Array as="points">
              <mxPoint x="560" y="120" />
            </Array>
          </mxGeometry>
        </mxCell>
        <mxCell id="7VkVirSZ5WOiLg93lLZf-40" value="Pasar" style="shape=rhombus;perimeter=rhombusPerimeter;whiteSpace=wrap;html=1;align=center;" parent="1" vertex="1">
          <mxGeometry x="500" y="-220" width="120" height="60" as="geometry" />
        </mxCell>
        <mxCell id="7VkVirSZ5WOiLg93lLZf-48" value="" style="endArrow=none;html=1;rounded=0;edgeStyle=orthogonalEdgeStyle;curved=1;" parent="1" edge="1">
          <mxGeometry width="50" height="50" relative="1" as="geometry">
            <mxPoint x="-90" y="20" as="sourcePoint" />
            <mxPoint x="360" y="20" as="targetPoint" />
            <Array as="points">
              <mxPoint x="-90" y="30" />
              <mxPoint x="360" y="30" />
            </Array>
          </mxGeometry>
        </mxCell>
        <mxCell id="j_QTbrRGd8eZM41wn22n-1" value="&lt;div align=&quot;left&quot;&gt;Pais(nombre_pk, extension, poblacion)&lt;br&gt;&lt;/div&gt;&lt;div&gt;Localidad(nombre_pk, nombre_fk_pais)&lt;/div&gt;&lt;div&gt;Accidentes_geo(nombre_pk, pos_horizontal, pos_vertical)&lt;/div&gt;&lt;div&gt;Pais_Accidente(nombre_pk_fk_pais, nombre_pk_fk_accidente)&lt;/div&gt;&lt;div&gt;Montañas(nombre_pk_fk, altura)&lt;/div&gt;&lt;div&gt;Lagos(nombre_pk_fk, extension)&lt;/div&gt;&lt;div&gt;Rios(nombre_pk_fk, longitud)&lt;/div&gt;&lt;div&gt;Localidad_Rios(nombre_pk_fk_localidad, nombre_pk_fk_rio)&lt;br&gt;&lt;/div&gt;&lt;div&gt;&lt;br&gt;&lt;/div&gt;&lt;div&gt;&lt;br&gt;&lt;/div&gt;" style="text;html=1;strokeColor=none;fillColor=none;align=left;verticalAlign=middle;whiteSpace=wrap;rounded=0;" parent="1" vertex="1">
          <mxGeometry x="-413" y="-160" width="460" height="140" as="geometry" />
        </mxCell>
      </root>
    </mxGraphModel>
  </diagram>
</mxfile>
